<?xml version="1.0" standalone="no"?>
<!DOCTYPE svg PUBLIC "-//W3C//DTD SVG 20010904//EN"
 "http://www.w3.org/TR/2001/REC-SVG-20010904/DTD/svg10.dtd">
<svg version="1.0" xmlns="http://www.w3.org/2000/svg"
 width="1080.000000pt" height="1080.000000pt" viewBox="0 0 1080.000000 1080.000000"
 preserveAspectRatio="xMidYMid meet">
<metadata>
Created by potrace 1.11, written by Peter Selinger 2001-2013
</metadata>
<g transform="translate(0.000000,1080.000000) scale(0.100000,-0.100000)"
fill="#000000" stroke="none">
<path d="M5935 8159 c-60 -10 -137 -23 -170 -28 -145 -23 -633 -102 -657 -107
l-28 -6 0 -789 c0 -434 -3 -789 -6 -789 -4 0 -45 16 -93 35 -344 137 -809 147
-1158 24 -473 -167 -789 -541 -932 -1104 -83 -326 -96 -804 -30 -1130 134
-661 561 -1114 1204 -1275 204 -51 324 -64 610 -64 264 0 390 10 720 55 251
34 641 116 673 141 9 8 12 522 10 2532 -3 2232 -5 2521 -18 2522 -8 1 -64 -7
-125 -17z m-1178 -2435 c87 -15 198 -51 276 -90 l47 -24 0 -904 0 -904 -22 -5
c-61 -15 -306 -29 -436 -24 -208 7 -323 43 -457 145 -104 79 -219 251 -269
404 -47 143 -60 246 -60 473 0 244 13 343 64 495 38 114 81 189 149 262 160
174 385 228 708 172z"/>
<path d="M7285 4144 c-108 -22 -138 -30 -192 -54 -223 -101 -332 -263 -349
-517 -19 -299 130 -522 415 -620 64 -22 95 -26 191 -27 137 -1 196 12 310 67
102 50 212 152 254 235 87 173 88 440 3 609 -54 106 -181 213 -317 266 -95 37
-240 56 -315 41z"/>
</g>
</svg>
